<svg width="605" height="588" viewBox="0 0 605 588" fill="none" xmlns="http://www.w3.org/2000/svg">
<path d="M582.033 346.075C577.332 379.525 566.483 411.168 550.933 439.917C500.848 415.326 441.361 391.64 375.726 370.846C363.973 367.23 351.859 363.433 339.383 359.817C352.04 354.754 365.42 350.415 379.342 346.798C411.165 338.3 445.881 333.78 482.225 333.78C518.568 333.78 551.114 338.119 582.033 346.075Z" fill="#78C42F" fill-opacity="0.06"/>
<path d="M410.264 460.71L406.467 474.271C406.467 474.271 466.678 491.087 497.778 509.53C491.63 515.496 485.121 521.282 478.431 526.345C456.01 512.242 410.807 499.947 408.637 499.404L405.021 513.146C417.678 516.581 448.597 525.984 466.316 535.386C459.988 540.087 453.479 544.426 446.788 548.223C433.047 540.81 411.53 534.662 408.818 533.939L405.021 547.5C412.253 549.489 422.921 552.925 431.6 556.722C418.039 563.773 404.117 569.559 389.29 574.26C345.895 539.364 296.895 504.105 243.555 470.293C235.419 465.05 227.282 459.987 219.146 455.286C152.064 414.241 86.4294 380.61 26.5805 355.477C25.4956 349.33 24.4107 343.001 23.6875 336.492C70.3371 339.747 121.869 346.256 175.932 356.382C209.563 362.529 244.279 370.123 279.899 379.164C284.419 380.249 288.939 381.334 293.46 382.599C276.463 392.906 261.275 404.658 248.256 417.496C257.478 419.485 267.603 420.389 277.729 420.389C306.84 420.389 333.419 412.253 351.862 399.053C419.667 419.304 481.504 442.629 534.121 467.22C526.165 478.611 517.305 489.459 507.722 499.585C475.176 479.334 412.796 461.795 409.903 461.072L410.264 460.71Z" fill="#009726" fill-opacity="0.06"/>
<path d="M337.574 585.109C326.363 586.556 314.972 587.279 303.581 587.279C271.396 587.279 240.297 581.854 211.547 571.729C131.809 544.246 68.5249 481.865 39.4141 402.85C91.8497 427.26 147.721 457.456 204.315 492.714C207.75 494.884 211.005 496.873 214.44 499.042C258.559 527.068 299.965 555.998 337.574 585.109Z" fill="#04710B" fill-opacity="0.06"/>
<path d="M149.532 99.8085V190.576C149.532 190.576 153.691 239.757 199.256 265.613C199.256 265.613 278.452 308.647 283.153 333.78V226.016C283.153 226.016 278.994 189.853 221.677 159.838C221.677 159.838 173.942 142.119 149.352 99.8085H149.532Z" fill="url(#paint0_linear_302_29)" fill-opacity="0.06"/>
<path d="M457.644 99.8085V190.576C457.644 190.576 453.485 239.757 407.92 265.613C407.92 265.613 328.725 308.647 324.023 333.78V226.016C324.023 226.016 328.182 189.853 385.5 159.838C385.5 159.838 433.234 142.119 457.825 99.8085H457.644Z" fill="url(#paint1_linear_302_29)" fill-opacity="0.06"/>
<path d="M605.001 234.694L561.245 286.226C561.245 286.226 535.208 312.082 496.876 304.85C496.876 304.85 431.241 291.108 416.414 303.222L468.307 242.108C468.307 242.108 488.016 223.484 535.027 234.152C535.027 234.152 570.647 247.17 605.001 234.875V234.694Z" fill="url(#paint2_linear_302_29)" fill-opacity="0.06"/>
<path d="M0 234.694L43.7566 286.226C43.7566 286.226 69.7936 312.082 108.126 304.85C108.126 304.85 173.761 291.108 188.587 303.222L136.694 242.108C136.694 242.108 116.986 223.484 69.9744 234.152C69.9744 234.152 34.3544 247.17 0 234.875V234.694Z" fill="url(#paint3_linear_302_29)" fill-opacity="0.06"/>
<path d="M351.688 89.3213C351.688 127.473 331.979 160.742 302.688 178.643C273.396 160.742 253.688 127.473 253.688 89.3213C253.688 51.1699 273.396 17.9004 302.688 0C331.979 17.9004 351.688 51.1699 351.688 89.3213Z" fill="url(#paint4_linear_302_29)" fill-opacity="0.06"/>
<defs>
<linearGradient id="paint0_linear_302_29" x1="195.459" y1="175.026" x2="284.238" y2="335.588" gradientUnits="userSpaceOnUse">
<stop stop-color="#F5CE5D"/>
<stop offset="1" stop-color="#D9A61A"/>
</linearGradient>
<linearGradient id="paint1_linear_302_29" x1="421.843" y1="156.041" x2="313.356" y2="354.212" gradientUnits="userSpaceOnUse">
<stop stop-color="#F5CE5D"/>
<stop offset="1" stop-color="#D9A61A"/>
</linearGradient>
<linearGradient id="paint2_linear_302_29" x1="582.4" y1="232.886" x2="412.436" y2="314.433" gradientUnits="userSpaceOnUse">
<stop stop-color="#F5CE5D"/>
<stop offset="1" stop-color="#D9A61A"/>
</linearGradient>
<linearGradient id="paint3_linear_302_29" x1="0" y1="268.325" x2="188.587" y2="268.325" gradientUnits="userSpaceOnUse">
<stop stop-color="#F5CE5D"/>
<stop offset="1" stop-color="#D9A61A"/>
</linearGradient>
<linearGradient id="paint4_linear_302_29" x1="302.507" y1="88.5981" x2="303.049" y2="186.598" gradientUnits="userSpaceOnUse">
<stop stop-color="#F5CE5D"/>
<stop offset="1" stop-color="#D9A61A"/>
</linearGradient>
</defs>
</svg>
