<svg width="1239" height="817" viewBox="0 0 1239 817" fill="none" xmlns="http://www.w3.org/2000/svg">
<path d="M50.5 186L52.8335 200.167L67 202.5L52.8335 204.833L50.5 219L48.1665 204.833L34 202.5L48.1665 200.167L50.5 186Z" fill="#003034"/>
<path d="M16.5 784L18.8335 798.167L33 800.5L18.8335 802.833L16.5 817L14.1665 802.833L0 800.5L14.1665 798.167L16.5 784Z" fill="#003034"/>
<path d="M631.5 343L633.833 357.167L648 359.5L633.833 361.833L631.5 376L629.167 361.833L615 359.5L629.167 357.167L631.5 343Z" fill="#04710B" fill-opacity="0.7"/>
<path d="M598.5 10L600.833 24.1665L615 26.5L600.833 28.8335L598.5 43L596.167 28.8335L582 26.5L596.167 24.1665L598.5 10Z" fill="#003034"/>
<path d="M1149.5 27L1151.83 41.1665L1166 43.5L1151.83 45.8335L1149.5 60L1147.17 45.8335L1133 43.5L1147.17 41.1665L1149.5 27Z" fill="#003034"/>
<path d="M1222.5 302L1224.83 316.167L1239 318.5L1224.83 320.833L1222.5 335L1220.17 320.833L1206 318.5L1220.17 316.167L1222.5 302Z" fill="#003034"/>
<path d="M990.5 756L992.833 770.167L1007 772.5L992.833 774.833L990.5 789L988.167 774.833L974 772.5L988.167 770.167L990.5 756Z" fill="#003034"/>
<path d="M157.5 0L159.833 14.1665L174 16.5L159.833 18.8335L157.5 33L155.167 18.8335L141 16.5L155.167 14.1665L157.5 0Z" fill="#003034"/>
</svg>
