<svg width="47" height="20" viewBox="0 0 47 20" fill="none" xmlns="http://www.w3.org/2000/svg">
<g clip-path="url(#clip0_181_172)">
<path d="M17.9028 9.39303C18.0149 8.99413 18.1242 8.6072 18.2334 8.22022C18.2429 8.18632 18.2523 8.15232 18.2602 8.11803C18.284 8.01464 18.2954 7.9032 18.1682 7.86537C18.0324 7.82498 17.9938 7.9325 17.9628 8.03388C17.6971 8.90425 17.4317 9.77473 17.1639 10.6445C17.1359 10.7352 17.1035 10.8274 17.0553 10.9089C16.8694 11.2232 16.5016 11.2676 16.2315 11.0138C16.2102 10.9938 16.1885 10.9741 16.1695 10.9565C15.8295 11.5556 15.4947 12.148 15.1571 12.7389C15.0286 12.9638 15.0226 13.2051 15.0832 13.4406C15.2332 14.0246 15.402 14.604 15.5629 15.1853C15.5761 15.233 15.5864 15.2814 15.6009 15.3408C15.4181 15.3408 15.2489 15.3408 15.0571 15.3408C15.0571 15.3971 15.0571 15.4449 15.0571 15.4927C15.0571 15.9654 15.0576 16.4381 15.057 16.9108C15.0566 17.2112 14.847 17.4275 14.5565 17.4291C14.2633 17.4308 14.0445 17.2224 14.0412 16.9203C14.0356 16.4025 14.0397 15.8847 14.0397 15.3555C13.9455 15.3555 13.8566 15.3555 13.7509 15.3555C13.7509 15.5309 13.7509 15.7053 13.7509 15.8798C13.7509 16.2218 13.7526 16.5638 13.7503 16.9057C13.7483 17.2173 13.5354 17.4318 13.2361 17.4293C12.9444 17.4268 12.735 17.2126 12.7338 16.9097C12.732 16.442 12.7333 15.9743 12.7333 15.5067C12.7333 15.4574 12.7333 15.4081 12.7333 15.3479C12.5527 15.3479 12.3842 15.3479 12.1926 15.3479C12.2238 15.2234 12.2486 15.1138 12.2789 15.0057C12.4184 14.5069 12.5666 14.0104 12.6971 13.5094C12.7721 13.2213 12.7584 12.9398 12.5967 12.6667C12.268 12.1112 11.9564 11.5461 11.6144 10.9439C11.5935 10.9878 11.5875 11.0154 11.5706 11.0334C11.4031 11.2121 11.1974 11.2629 10.9841 11.1809C10.782 11.1031 10.6734 10.9341 10.6731 10.69C10.6722 10.0966 10.6728 9.50322 10.6728 8.90981C10.6728 8.55276 10.6733 8.19571 10.6723 7.83866C10.6721 7.77851 10.6677 7.71817 10.6615 7.65829C10.648 7.52642 10.5722 7.46045 10.4354 7.46305C10.2975 7.46566 10.269 7.56297 10.2564 7.66732C10.248 7.73691 10.2501 7.80787 10.2501 7.87822C10.2498 10.8151 10.2497 13.752 10.2502 16.6888C10.2502 16.9963 10.1103 17.224 9.82761 17.3519C9.55006 17.4775 9.28118 17.4354 9.04768 17.2417C8.86803 17.0927 8.79707 16.8952 8.79737 16.6653C8.79961 14.9907 8.79858 13.3161 8.79857 11.6415C8.79856 11.4029 8.74665 11.3195 8.59708 11.3173C8.45085 11.3152 8.39597 11.4029 8.39597 11.639C8.39596 13.3036 8.3964 14.9682 8.39565 16.6327C8.39547 17.0428 8.18051 17.3264 7.81896 17.4003C7.3798 17.49 6.96991 17.1874 6.9412 16.7514C6.9379 16.7013 6.93969 16.6508 6.93969 16.6005C6.93964 13.6687 6.93972 10.7369 6.93912 7.80504C6.93911 7.74005 6.93976 7.67318 6.92511 7.61052C6.90421 7.52121 6.84945 7.43735 6.74473 7.46876C6.66776 7.49184 6.58981 7.55129 6.54263 7.61563C6.50935 7.66102 6.5225 7.74176 6.52244 7.80673C6.52147 8.75216 6.51973 9.6976 6.52334 10.643C6.52415 10.8536 6.4676 11.0277 6.27885 11.1483C6.25394 11.1642 6.23422 11.2005 6.22843 11.2304C5.84512 13.2084 5.46343 15.1867 5.0818 17.165C5.04139 17.3745 4.91458 17.4732 4.73345 17.4346C4.57369 17.4006 4.50339 17.2634 4.54133 17.0671C4.91896 15.1135 5.29655 13.1598 5.67046 11.2055C5.67968 11.1573 5.65 11.1003 5.63224 11.0494C5.59341 10.9382 5.51556 10.8285 5.51475 10.7178C5.50612 9.53606 5.50022 8.35416 5.51245 7.17249C5.52184 6.26473 6.29763 5.53845 7.23035 5.53754C8.13913 5.53666 9.04791 5.53661 9.95668 5.53755C10.9106 5.53854 11.6798 6.28766 11.68 7.21469C11.6803 8.32598 11.6801 9.43727 11.6801 10.5616C11.7032 10.5537 11.7203 10.5511 11.7336 10.5427C11.969 10.3962 12.1752 10.4354 12.3288 10.6667C12.4491 10.8479 12.5575 11.0365 12.6737 11.2204C12.7358 11.3188 12.8033 11.4139 12.868 11.5107C12.9933 11.6979 13.1611 11.7904 13.3998 11.7816C13.7401 11.769 14.0814 11.772 14.422 11.7807C14.6352 11.7862 14.793 11.7052 14.9043 11.5367C15.0801 11.2707 15.2516 11.002 15.4216 10.7325C15.6099 10.434 15.7808 10.3855 16.0849 10.5492C16.4344 9.43985 16.7716 8.32638 17.1392 7.2225C17.2962 6.75125 17.6008 6.38103 18.1301 6.25193C18.204 6.23391 18.2834 6.23231 18.3603 6.23219C19.1968 6.23087 20.0333 6.23633 20.8698 6.229C21.2205 6.22593 21.5184 6.34451 21.7282 6.60288C21.8975 6.81144 22.0553 7.04941 22.1394 7.29947C22.4761 8.30034 22.7842 9.31038 23.0965 10.3189C23.1344 10.4411 23.152 10.5754 23.1466 10.7028C23.1357 10.9556 22.9994 11.1003 22.7527 11.1579C22.5238 11.2114 22.319 11.1395 22.2097 10.9161C22.1043 10.7007 22.0375 10.4662 21.9664 10.2363C21.7438 9.51571 21.5284 8.79299 21.3066 8.07211C21.274 7.96611 21.2503 7.81332 21.084 7.86769C20.9338 7.91677 20.9764 8.0537 21.0079 8.16572C21.1858 8.79977 21.3657 9.4333 21.5452 10.0669C21.8275 11.0633 22.11 12.0596 22.3921 13.0561C22.4015 13.0894 22.4065 13.124 22.4175 13.1765C21.9799 13.1765 21.5495 13.1765 21.0937 13.1765C21.0937 13.2516 21.0937 13.3092 21.0937 13.3667C21.0936 14.5083 21.0946 15.6498 21.093 16.7914C21.0926 17.1066 20.8786 17.3628 20.5766 17.4202C20.2742 17.4777 19.9743 17.3289 19.8601 17.047C19.8197 16.9475 19.805 16.8322 19.8046 16.7241C19.8008 15.6127 19.8023 14.5013 19.8023 13.39C19.8023 13.3302 19.8023 13.2705 19.8023 13.199C19.6876 13.199 19.5823 13.199 19.4516 13.199C19.4516 13.2519 19.4516 13.3096 19.4516 13.3673C19.4516 14.5038 19.4522 15.6404 19.4512 16.7769C19.4509 17.0715 19.2864 17.3055 19.0226 17.3952C18.7602 17.4845 18.4526 17.4126 18.3057 17.186C18.2226 17.058 18.1679 16.8891 18.1664 16.738C18.155 15.6217 18.1602 14.5052 18.1602 13.3888C18.1602 13.3292 18.1602 13.2696 18.1602 13.1924C17.7196 13.1924 17.2891 13.1924 16.8261 13.1924C17.1887 11.9136 17.5443 10.6593 17.9028 9.39303Z" fill="#FFFEFE"/>
<path d="M35.563 14.4991C35.563 12.2715 35.5631 10.0589 35.5622 7.84635C35.5622 7.77144 35.5561 7.69569 35.5436 7.62185C35.528 7.53038 35.483 7.46228 35.3721 7.46241C35.2604 7.46255 35.1814 7.50698 35.1558 7.61637C35.1434 7.66941 35.1405 7.72551 35.1405 7.78023C35.1396 8.74571 35.1409 9.7112 35.1393 10.6767C35.1388 10.9907 34.9438 11.2052 34.6584 11.2151C34.3402 11.2261 34.1283 11.0158 34.1278 10.6815C34.1263 9.77633 34.1264 8.87118 34.1277 7.96605C34.1282 7.65949 34.1153 7.35138 34.1416 7.04667C34.2147 6.19867 34.9653 5.53871 35.8399 5.53751C36.7538 5.53626 37.6677 5.5364 38.5816 5.53746C39.5228 5.53855 40.2981 6.28543 40.3024 7.20542C40.3077 8.367 40.3046 9.52861 40.303 10.6902C40.3026 11.0023 40.0896 11.2164 39.7903 11.2152C39.4933 11.2139 39.2869 10.9983 39.2865 10.6826C39.2853 9.71213 39.2866 8.74162 39.2849 7.77111C39.2848 7.7072 39.2909 7.62217 39.2538 7.58434C39.1977 7.52695 39.1072 7.47653 39.0293 7.47351C38.9823 7.47169 38.9122 7.55777 38.8875 7.61798C38.8602 7.68428 38.8689 7.76619 38.8689 7.8413C38.8682 10.778 38.8684 13.7147 38.8681 16.6513C38.8681 17.0346 38.6594 17.318 38.3221 17.3963C37.8479 17.5063 37.4225 17.1804 37.4223 16.7035C37.4214 15.029 37.422 13.3545 37.4214 11.68C37.4214 11.6149 37.4171 11.5495 37.4094 11.4849C37.3957 11.3708 37.3229 11.3165 37.209 11.3186C37.0943 11.3208 37.0266 11.3808 37.0155 11.4937C37.0101 11.5486 37.0096 11.6041 37.0096 11.6593C37.0093 13.3288 37.0097 14.9982 37.009 16.6677C37.0088 17.0634 36.7766 17.3434 36.4009 17.4072C35.9669 17.4809 35.5663 17.1618 35.5641 16.7318C35.5603 15.9926 35.563 15.2534 35.563 14.4991Z" fill="#FFFDFE"/>
<path d="M24.4673 12.1671C24.8445 10.8299 25.2189 9.5046 25.5923 8.17911C25.625 8.06314 25.6788 7.91878 25.5203 7.86842C25.3451 7.81274 25.3307 7.97626 25.2966 8.08718C25.0337 8.94263 24.7741 9.79903 24.5094 10.654C24.4771 10.7584 24.4336 10.8638 24.3729 10.9546C24.2403 11.1531 24.0539 11.2129 23.8221 11.1512C23.6024 11.0926 23.4602 10.9315 23.4536 10.7038C23.4502 10.5854 23.4638 10.461 23.4989 10.348C23.822 9.30642 24.1384 8.26254 24.4853 7.22845C24.643 6.75854 24.944 6.38436 25.4733 6.25348C25.552 6.23402 25.6368 6.23233 25.7188 6.23218C26.5448 6.23072 27.371 6.23799 28.1969 6.22838C28.5908 6.2238 28.9077 6.36806 29.1345 6.66547C29.2824 6.85935 29.4148 7.07936 29.4908 7.30766C29.821 8.29981 30.1289 9.29905 30.4422 10.2965C30.4737 10.3966 30.4992 10.5013 30.5063 10.6053C30.5262 10.8922 30.3802 11.0882 30.1104 11.1557C29.8541 11.2198 29.6309 11.1182 29.519 10.8446C29.4088 10.5751 29.3317 10.2926 29.2462 10.014C29.0457 9.36048 28.8491 8.70583 28.6499 8.05192C28.6368 8.0089 28.6263 7.95785 28.5961 7.92898C28.5601 7.89463 28.5003 7.85719 28.4577 7.86366C28.415 7.87013 28.3543 7.92539 28.3483 7.96585C28.337 8.04184 28.3483 8.12554 28.3695 8.2009C28.8291 9.83643 29.2914 11.4712 29.753 13.1062C29.7583 13.1248 29.7624 13.1437 29.7726 13.1847C29.3281 13.1847 28.8938 13.1847 28.4434 13.1847C28.4434 13.2645 28.4434 13.3236 28.4434 13.3827C28.4434 14.499 28.4441 15.6152 28.4429 16.7315C28.4425 17.0893 28.2781 17.3197 27.9688 17.4066C27.6015 17.51 27.218 17.2708 27.1648 16.903C27.1547 16.8337 27.1525 16.7629 27.1525 16.6927C27.1518 15.5916 27.152 14.4904 27.152 13.3892C27.152 13.3296 27.152 13.27 27.152 13.1988C27.03 13.1988 26.9205 13.1988 26.7961 13.1988C26.7961 13.2562 26.7961 13.3104 26.7961 13.3646C26.7961 14.491 26.7864 15.6174 26.8014 16.7436C26.8066 17.128 26.522 17.4284 26.1619 17.4299C25.7793 17.4316 25.5111 17.1515 25.5105 16.7406C25.5089 15.6243 25.5099 14.5081 25.5099 13.3918C25.5099 13.332 25.5099 13.2723 25.5099 13.195C25.069 13.195 24.6382 13.195 24.1762 13.195C24.2767 12.8406 24.3705 12.5098 24.4673 12.1671Z" fill="#FFFEFE"/>
<path d="M30.6205 14.1195C30.5744 14.26 30.5348 14.3899 30.4903 14.5182C30.4289 14.6954 30.2697 14.7832 30.0928 14.7414C29.9084 14.6977 29.8002 14.5392 29.8467 14.3503C29.8825 14.2048 29.9373 14.0626 29.9947 13.9232C30.2208 13.3739 30.4511 12.8263 30.6804 12.2783C30.696 12.2412 30.7175 12.2065 30.7336 12.1695C30.9315 11.7152 31.2649 11.4973 31.7887 11.5362C32.1839 11.5655 32.5831 11.541 32.9806 11.5427C33.0784 11.5431 33.1764 11.5494 33.274 11.5574C33.6312 11.5869 33.8597 11.7802 33.9895 12.0964C34.2591 12.7532 34.5294 13.4098 34.797 14.0673C34.892 14.3008 34.7399 14.5498 34.484 14.5843C34.3546 14.6017 34.2541 14.5705 34.2035 14.4342C34.0215 13.9438 33.8344 13.4552 33.6491 12.9659C33.63 12.9155 33.6107 12.8651 33.5528 12.8163C33.5484 12.8755 33.5401 12.9347 33.54 12.9939C33.5393 14.2863 33.5398 15.5786 33.5392 16.8709C33.539 17.1721 33.3687 17.385 33.1009 17.4246C32.766 17.4741 32.488 17.2444 32.4859 16.9089C32.4827 16.396 32.4867 15.8831 32.4838 15.3702C32.4831 15.2544 32.5107 15.0971 32.3267 15.0995C32.1412 15.102 32.178 15.2605 32.1774 15.3752C32.1747 15.8831 32.1792 16.391 32.1749 16.8988C32.1726 17.1633 32.0078 17.3663 31.7681 17.4195C31.5399 17.4703 31.2871 17.3736 31.1909 17.1683C31.1375 17.0543 31.1154 16.9171 31.1149 16.7903C31.1095 15.5282 31.1116 14.266 31.1116 13.0039C31.1116 12.9438 31.1116 12.8838 31.1116 12.8237C31.0999 12.8186 31.0881 12.8136 31.0763 12.8085C31.0509 12.8542 31.0175 12.8974 31.0015 12.9461C30.8741 13.3328 30.7499 13.7206 30.6205 14.1195Z" fill="#FFFCFD"/>
<path d="M9.78546 4.31922C9.49132 4.86877 8.96294 5.14035 8.38053 5.0496C7.8498 4.96691 7.40694 4.54168 7.31661 4.02803C7.2218 3.48894 7.47425 2.96047 7.95231 2.69725C8.42213 2.43857 9.02083 2.48871 9.42849 2.82088C9.85721 3.17021 10.0092 3.73625 9.81297 4.25277C9.80582 4.27157 9.79766 4.29 9.78546 4.31922Z" fill="#FFFEFE"/>
<path d="M35.9141 3.87052C35.9138 3.27843 36.213 2.82482 36.729 2.62114C37.2108 2.43093 37.774 2.54615 38.1428 2.91038C38.5358 3.29848 38.6259 3.89681 38.3652 4.38738C38.1105 4.86672 37.5673 5.13161 37.0051 5.05068C36.4684 4.97343 36.0271 4.54763 35.9352 4.01818C35.9275 3.97365 35.9212 3.92889 35.9141 3.87052Z" fill="#FFFEFE"/>
<path d="M25.9167 3.86124C26.3168 3.24509 27.0969 3.07622 27.6835 3.47087C28.2591 3.85816 28.3893 4.64441 27.9677 5.1873C27.5855 5.67957 26.8714 5.80797 26.3332 5.4812C25.773 5.14102 25.5964 4.46812 25.9167 3.86124Z" fill="#FFFEFE"/>
<path d="M18.6964 5.24939C18.349 4.82081 18.2966 4.36738 18.5444 3.89082C18.7579 3.4803 19.2384 3.22398 19.6913 3.26293C20.232 3.30942 20.6066 3.57742 20.7902 4.07552C20.988 4.61195 20.7579 5.20298 20.2521 5.49635C19.749 5.7882 19.1145 5.69033 18.6964 5.24939Z" fill="#FFFEFE"/>
<path d="M14.9067 10.334C14.7761 10.8694 14.3661 11.1782 13.8329 11.1538C13.3645 11.1323 12.9531 10.7728 12.8885 10.325C12.8296 9.91637 12.9617 9.57721 13.3105 9.33987C13.6526 9.10714 14.0259 9.08805 14.391 9.2822C14.7636 9.48037 14.934 9.80299 14.9194 10.2167C14.9181 10.2517 14.9123 10.2865 14.9067 10.334Z" fill="#FFFDFD"/>
<path d="M31.451 9.64515C31.807 9.13807 32.4298 9.00915 32.9154 9.33325C33.3789 9.64261 33.4983 10.2636 33.182 10.7201C32.8776 11.1594 32.2742 11.2867 31.7993 11.0118C31.3252 10.7375 31.1733 10.1544 31.451 9.64515Z" fill="#FFFDFD"/>
</g>
<defs>
<clipPath id="clip0_181_172">
<rect width="47" height="20" fill="white"/>
</clipPath>
</defs>
</svg>
