<svg width="30" height="29" viewBox="0 0 30 29" fill="none" xmlns="http://www.w3.org/2000/svg">
<path d="M8.17188 6.24805C8.63878 6.73136 9.1353 7.11231 9.57422 7.39648C9.95499 7.64301 10.2973 7.82261 10.5459 7.94141C10.6702 8.00078 10.772 8.04513 10.8438 8.0752C10.8796 8.09024 10.9085 8.10237 10.9287 8.11035H10.9307C12.2158 8.78884 12.8774 9.51893 13.2178 10.0508C13.3901 10.32 13.484 10.5431 13.5332 10.6914C13.5578 10.7654 13.571 10.8212 13.5781 10.8545C13.5792 10.8595 13.5803 10.8642 13.5811 10.8682V14.5039C13.1875 14.151 12.7183 13.8009 12.2656 13.4922C11.7655 13.1511 11.2742 12.8493 10.9092 12.6338C10.7263 12.5259 10.5735 12.439 10.4668 12.3789C10.4136 12.349 10.3717 12.3255 10.3428 12.3096C10.3283 12.3016 10.3173 12.2952 10.3096 12.291C10.3058 12.2889 10.3029 12.2873 10.3008 12.2861L10.2979 12.2852C9.32601 11.7311 8.79444 10.932 8.50293 10.2607C8.35673 9.92399 8.27271 9.6221 8.22559 9.40723C8.20212 9.30021 8.18777 9.21511 8.17969 9.15918L8.17188 9.09863V6.24805Z" stroke="white"/>
<path d="M21.9326 9.09863L21.9248 9.15918C21.9167 9.21511 21.9024 9.30022 21.8789 9.40723C21.8318 9.6221 21.7478 9.92399 21.6016 10.2607C21.3098 10.9325 20.7769 11.731 19.8037 12.2852V12.2861C19.8016 12.2873 19.7987 12.2889 19.7949 12.291C19.7872 12.2952 19.7761 12.3016 19.7617 12.3096C19.7328 12.3255 19.6908 12.349 19.6377 12.3789C19.531 12.439 19.3782 12.5259 19.1953 12.6338C18.8303 12.8493 18.3391 13.1511 17.8389 13.4922C17.3862 13.8009 16.917 14.151 16.5234 14.5039V10.8682C16.5242 10.8642 16.5253 10.8594 16.5264 10.8545C16.5335 10.8212 16.5467 10.7654 16.5713 10.6914C16.6204 10.5432 16.7136 10.3198 16.8857 10.0508C17.226 9.51903 17.8881 8.78875 19.1729 8.11035H19.1758C19.196 8.10237 19.2248 8.09024 19.2607 8.0752C19.3324 8.04515 19.4336 8.00068 19.5576 7.94141C19.8062 7.82261 20.1493 7.64314 20.5303 7.39648C20.9693 7.11221 21.4656 6.73062 21.9326 6.24707V9.09863Z" stroke="white"/>
<path d="M23.8516 11.6855C24.2782 11.5548 24.9824 11.4601 26.0166 11.6895C26.0316 11.6945 26.0504 11.7018 26.0732 11.709C26.1302 11.727 26.2111 11.7516 26.3125 11.7783C26.515 11.8317 26.8013 11.8952 27.1426 11.9395C27.4544 11.9799 27.8186 12.0023 28.2109 11.9854L27.0381 13.3672C27.0324 13.3724 27.0255 13.3798 27.0166 13.3877C26.9871 13.4137 26.9402 13.4526 26.8779 13.5C26.7528 13.5952 26.5666 13.7215 26.3301 13.8379C25.8576 14.0703 25.1967 14.2584 24.4102 14.1094H24.4092C24.4026 14.108 24.3931 14.106 24.3809 14.1035C24.3564 14.0986 24.3205 14.0917 24.2754 14.083C24.1852 14.0656 24.0559 14.0416 23.8994 14.0146C23.5868 13.9608 23.1605 13.8944 22.709 13.8467C22.3951 13.8135 22.0612 13.7889 21.7412 13.7842L23.3008 11.9473C23.3176 11.9344 23.3478 11.912 23.3926 11.8848C23.4835 11.8294 23.635 11.752 23.8516 11.6855Z" stroke="white"/>
<path d="M3.98145 11.6904C5.01726 11.4603 5.7225 11.5546 6.14941 11.6855C6.36577 11.7519 6.51653 11.8295 6.60742 11.8848C6.65159 11.9116 6.68131 11.9343 6.69824 11.9473L8.25781 13.7842C7.93833 13.789 7.60538 13.8136 7.29199 13.8467C6.8403 13.8944 6.41329 13.9608 6.10059 14.0146C5.94402 14.0416 5.81482 14.0656 5.72461 14.083C5.67948 14.0917 5.64362 14.0986 5.61914 14.1035C5.60691 14.106 5.59739 14.108 5.59082 14.1094H5.58984C4.80325 14.2584 4.14244 14.0703 3.66992 13.8379C3.43342 13.7215 3.24716 13.5952 3.12207 13.5C3.05979 13.4526 3.01288 13.4137 2.9834 13.3877C2.97415 13.3795 2.96674 13.3725 2.96094 13.3672L1.78809 11.9854C2.18078 12.0024 2.54536 11.9799 2.85742 11.9395C3.1987 11.8952 3.48498 11.8317 3.6875 11.7783C3.78882 11.7516 3.86976 11.727 3.92676 11.709C3.94851 11.7021 3.96682 11.6953 3.98145 11.6904Z" stroke="white"/>
<path d="M14.998 0.598633C16.1109 1.3924 16.8496 2.73988 16.8496 4.27734C16.8496 5.8137 16.1087 7.15994 14.998 7.9541C13.8864 7.16015 13.1484 5.81387 13.1484 4.27734C13.1484 2.74039 13.8859 1.39251 14.998 0.598633Z" stroke="white"/>
<path d="M23.5811 16.8342C25.1047 16.8342 26.486 16.9999 27.7979 17.2991C27.5794 18.5192 27.191 19.681 26.6533 20.76C24.3206 19.6453 21.6026 18.5751 18.627 17.6321L18.623 17.6311L18.375 17.554C18.5063 17.517 18.6388 17.4813 18.7725 17.4475L18.7783 17.4456C20.2613 17.0526 21.8851 16.8342 23.5811 16.8342Z" stroke="white"/>
<path d="M2.19043 16.9854C4.24279 17.1507 6.47258 17.4433 8.81738 17.8828L8.81934 17.8838C10.2797 18.1523 11.7864 18.48 13.3232 18.8613C12.8507 19.2083 12.4148 19.5807 12.0195 19.9707L11.3574 20.623L12.2676 20.8154C12.7505 20.9174 13.2642 20.9678 13.7881 20.9678C15.1675 20.9678 16.4552 20.608 17.4229 19.9902C20.3306 20.8686 22.9935 21.8645 25.3096 22.9072C25.1207 23.1529 24.9245 23.3915 24.7197 23.6221C23.9304 23.1897 22.938 22.8033 22.1074 22.5127C21.1338 22.1721 20.3393 21.9487 20.2666 21.9277L20.002 22.374L19.6494 22.2754L19.4668 22.9229L19.3467 23.3496L19.7559 23.5205C19.7727 23.5275 19.7868 23.5324 19.7891 23.5332C19.7939 23.5348 19.7983 23.5363 19.8008 23.5371C19.8057 23.5387 19.8106 23.5399 19.8145 23.541C19.8226 23.5435 19.8333 23.5464 19.8447 23.5498C19.8723 23.5579 19.8979 23.5657 19.9434 23.5791C20.0265 23.6036 20.1453 23.6382 20.291 23.6826C20.5828 23.7716 20.9836 23.8981 21.4287 24.0508C22.0936 24.2788 22.8369 24.5591 23.4619 24.8555C23.4266 24.8854 23.392 24.916 23.3564 24.9453C22.7996 24.6475 22.1048 24.3829 21.5264 24.1865C20.8245 23.9483 20.2413 23.7908 20.1738 23.7744L19.6992 23.6592L19.5732 24.1318L19.3984 24.7852L19.2695 25.2686L19.6895 25.3799L19.5801 25.7695L19.3975 26.417L19.2607 26.9014L19.7461 27.0352C19.7674 27.041 19.7898 27.0473 19.8125 27.0537C19.6201 27.1308 19.4252 27.2038 19.2266 27.2725C17.4509 25.856 15.4877 24.4294 13.3711 23.0479L12.416 22.4346C12.0227 22.1835 11.6248 21.9364 11.2285 21.7031C8.09446 19.78 5.01468 18.1971 2.19238 16.998C2.19169 16.9938 2.19112 16.9896 2.19043 16.9854Z" stroke="white"/>
<path d="M3.33301 20.667C5.47343 21.7163 7.7143 22.9588 9.98926 24.374V24.375C10.072 24.4278 10.1557 24.479 10.2363 24.5293C10.3175 24.5799 10.396 24.6292 10.4736 24.6787L10.4756 24.6797C12.1732 25.756 13.7834 26.8632 15.2803 27.9746C15.1919 27.9765 15.1034 27.9795 15.0146 27.9795C13.5272 27.9795 12.0986 27.7268 10.7656 27.2656L10.7646 27.2646C7.50276 26.1411 4.83198 23.7416 3.33301 20.667Z" stroke="white"/>
</svg>
